# Blender 3.5.0
# www.blender.org
mtllib model.mtl
o Икосфера
v -0.035799 0.001689 0.026724
v 0.303149 0.210616 0.364163
v -0.110684 0.161748 0.582863
v -0.450119 0.201950 -0.035796
v -0.223762 0.201027 -0.541206
v 0.222970 0.257167 -0.172089
v 0.037427 0.524716 0.399319
v -0.374339 0.595066 0.258903
v -0.346912 0.654445 -0.182672
v 0.080356 0.585417 -0.363754
v 0.383169 0.580179 0.135511
v -0.034237 0.716283 0.035453
v -0.115841 0.002253 0.253054
v 0.160690 0.045410 0.179418
v 0.058304 0.136416 0.352747
v 0.344854 0.089877 0.087302
v 0.159618 -0.000409 -0.029957
v -0.235039 0.045635 0.050546
v -0.398439 0.181834 0.234370
v -0.162176 0.000960 -0.143956
v -0.315267 0.174206 -0.230072
v 0.001469 0.080756 -0.354058
v 0.372290 0.428530 0.157863
v 0.409105 0.357641 -0.097564
v 0.033304 0.436200 0.597243
v 0.214526 0.408683 0.401424
v -0.462959 0.401200 0.170951
v -0.368992 0.450055 0.424532
v -0.314871 0.441036 -0.505291
v -0.422474 0.381842 -0.082614
v 0.219862 0.396251 -0.325548
v -0.084298 0.382272 -0.541598
v 0.306572 0.554292 0.241053
v -0.099706 0.665474 0.336679
v -0.428212 0.598988 0.049579
v -0.146213 0.664611 -0.461221
v 0.271634 0.616804 -0.179018
v -0.027913 0.715919 0.265789
v 0.187395 0.716613 0.073336
v -0.231648 0.716951 0.172315
v -0.167010 0.717151 -0.178157
v 0.027541 0.716924 -0.185013
vn 0.1702 -0.9834 0.0626
vn 0.4047 -0.8143 0.4161
vn -0.2235 -0.9717 -0.0766
vn -0.1959 -0.9692 0.1492
vn -0.0078 -0.9999 0.0101
vn 0.9726 -0.1202 0.1989
vn 0.7151 -0.4050 0.5697
vn -0.9580 -0.2338 0.1658
vn -0.9076 -0.3007 -0.2929
vn 0.7526 -0.4803 -0.4505
vn 0.8014 0.2570 0.5401
vn -0.3853 0.1545 0.9098
vn -0.9804 0.1078 -0.1648
vn -0.1303 0.0982 -0.9866
vn 0.5556 -0.6105 -0.5645
vn 0.3490 0.6138 0.7081
vn -0.3476 0.7784 0.5228
vn -0.3296 0.9379 0.1086
vn 0.4581 0.7752 -0.4350
vn 0.5926 0.7969 -0.1174
vn -0.0019 1.0000 0.0024
vn 0.3741 0.8983 -0.2304
vn 0.3412 0.8024 -0.4896
vn 0.0013 1.0000 0.0033
vn -0.0053 0.9831 -0.1829
vn -0.3184 0.9276 -0.1956
vn 0.0043 1.0000 0.0014
vn -0.4723 0.8772 -0.0866
vn -0.5810 0.7971 0.1645
vn 0.0044 1.0000 0.0015
vn -0.1934 0.8813 0.4312
vn 0.2938 0.6128 0.7336
vn -0.0018 1.0000 0.0016
vn 0.4129 0.7833 0.4647
vn 0.3946 0.7843 0.4787
vn 0.8834 0.3842 -0.2685
vn 0.7687 0.2189 -0.6010
vn 0.6299 0.3218 -0.7069
vn 0.4688 0.3354 -0.8172
vn -0.0866 0.2552 -0.9630
vn -0.6644 0.5913 -0.4571
vn -0.9435 0.1538 -0.2936
vn -0.9840 0.0730 -0.1627
vn -0.9192 0.3102 0.2424
vn -0.3551 0.6976 0.6223
vn -0.2830 0.6438 0.7109
vn 0.5942 0.7296 0.3387
vn 0.3673 0.5739 0.7319
vn 0.8342 0.0745 0.5464
vn 0.8055 0.0294 0.5918
vn 0.5535 0.2476 -0.7952
vn 0.5588 -0.3176 -0.7661
vn 0.4720 -0.3649 -0.8025
vn -0.9582 0.1856 -0.2179
vn -0.9200 -0.2808 -0.2735
vn -0.8227 -0.0214 -0.5680
vn -0.9144 0.2896 0.2830
vn -0.9147 -0.1620 0.3702
vn -0.7357 -0.3362 0.5881
vn 0.5082 0.7822 0.3604
vn 0.6154 -0.4667 0.6352
vn 0.0090 -0.1810 0.9834
vn 0.9867 -0.0479 0.1555
vn 0.9782 -0.1153 0.1730
vn 0.5502 -0.5598 -0.6196
vn 0.7529 -0.4501 -0.4801
vn 0.0973 -0.9532 -0.2862
vn -0.1186 -0.8941 -0.4319
vn -0.6583 -0.7083 -0.2547
vn -0.7169 -0.6884 -0.1104
vn -0.5082 -0.8287 -0.2344
vn -0.6015 -0.7969 0.0557
vn -0.5377 -0.8317 0.1383
vn -0.5139 -0.7691 0.3800
vn 0.6241 -0.4895 -0.6090
vn 0.3236 -0.9247 0.2007
vn 0.0514 -0.9756 0.2132
vn 0.4101 -0.8235 0.3919
vn 0.2725 -0.7762 0.5685
vn 0.2182 -0.8050 0.5516
vt 0.181819 0.000000
vt 0.909091 0.000000
vt 0.727273 0.000000
vt 0.545455 0.000000
vt 0.363637 0.000000
vt 0.272728 0.157461
vt 1.000000 0.157461
vt 0.090910 0.157461
vt 0.818182 0.157461
vt 0.636364 0.157461
vt 0.454546 0.157461
vt 0.181819 0.314921
vt 0.000000 0.314921
vt 0.909091 0.314921
vt 0.727273 0.314921
vt 0.545455 0.314921
vt 0.363637 0.314921
vt 0.454546 0.472382
vt 0.636364 0.472382
vt 0.818182 0.472382
vt 0.090910 0.472382
vt 0.272728 0.472382
vt 0.954545 0.078731
vt 0.136365 0.078731
vt 0.318182 0.078731
vt 0.227273 0.078731
vt 0.181819 0.157461
vt 0.363637 0.157461
vt 0.500000 0.078731
vt 0.409092 0.078731
vt 0.772727 0.078731
vt 0.863636 0.078731
vt 0.909091 0.157461
vt 0.590909 0.078731
vt 0.681818 0.078731
vt 0.727273 0.157461
vt 0.545455 0.157461
vt 0.318182 0.236191
vt 0.409092 0.236191
vt 0.136365 0.236191
vt 0.227273 0.236191
vt 0.863636 0.236191
vt 0.045455 0.236191
vt 0.954545 0.236191
vt 0.681818 0.236191
vt 0.772727 0.236191
vt 0.500000 0.236191
vt 0.590909 0.236191
vt 0.272728 0.314921
vt 0.090910 0.314921
vt 0.818182 0.314921
vt 0.636364 0.314921
vt 0.454546 0.314921
vt 0.136365 0.393651
vt 0.227273 0.393651
vt 0.409092 0.393651
vt 0.318182 0.393651
vt 0.863636 0.393651
vt 0.045455 0.393651
vt 0.681818 0.393651
vt 0.772727 0.393651
vt 0.500000 0.393651
vt 0.590909 0.393651
s 0
usemtl Материал
f 1/1/1 14/26/1 13/24/1
f 2/6/2 14/25/2 16/28/2
f 1/2/3 13/23/3 18/32/3
f 1/3/4 18/31/4 20/35/4
f 1/4/5 20/34/5 17/29/5
f 2/6/6 16/28/6 23/38/6
f 3/8/7 15/27/7 25/40/7
f 4/9/8 19/33/8 27/42/8
f 5/10/9 21/36/9 29/45/9
f 6/11/10 22/37/10 31/47/10
f 2/6/11 23/38/11 26/41/11
f 3/8/12 25/40/12 28/43/12
f 4/9/13 27/42/13 30/46/13
f 5/10/14 29/45/14 32/48/14
f 6/11/15 31/47/15 24/39/15
f 7/12/16 33/49/16 38/55/16
f 8/13/17 34/50/17 40/59/17
f 9/15/18 35/51/18 41/61/18
f 10/16/19 36/52/19 42/63/19
f 11/17/20 37/53/20 39/56/20
f 39/56/21 42/62/21 12/18/21
f 39/56/22 37/53/22 42/62/22
f 37/53/23 10/16/23 42/62/23
f 42/63/24 41/60/24 12/19/24
f 42/63/25 36/52/25 41/60/25
f 36/52/26 9/15/26 41/60/26
f 41/61/27 40/58/27 12/20/27
f 41/61/28 35/51/28 40/58/28
f 35/51/29 8/14/29 40/58/29
f 40/59/30 38/54/30 12/21/30
f 40/59/31 34/50/31 38/54/31
f 34/50/32 7/12/32 38/54/32
f 38/55/33 39/57/33 12/22/33
f 38/55/34 33/49/34 39/57/34
f 33/49/35 11/17/35 39/57/35
f 24/39/36 37/53/36 11/17/36
f 24/39/37 31/47/37 37/53/37
f 31/47/38 10/16/38 37/53/38
f 32/48/39 36/52/39 10/16/39
f 32/48/40 29/45/40 36/52/40
f 29/45/41 9/15/41 36/52/41
f 30/46/42 35/51/42 9/15/42
f 30/46/43 27/42/43 35/51/43
f 27/42/44 8/14/44 35/51/44
f 28/43/45 34/50/45 8/13/45
f 28/43/46 25/40/46 34/50/46
f 25/40/47 7/12/47 34/50/47
f 26/41/48 33/49/48 7/12/48
f 26/41/49 23/38/49 33/49/49
f 23/38/50 11/17/50 33/49/50
f 31/47/51 32/48/51 10/16/51
f 31/47/52 22/37/52 32/48/52
f 22/37/53 5/10/53 32/48/53
f 29/45/54 30/46/54 9/15/54
f 29/45/55 21/36/55 30/46/55
f 21/36/56 4/9/56 30/46/56
f 27/42/57 28/44/57 8/14/57
f 27/42/58 19/33/58 28/44/58
f 19/33/59 3/7/59 28/44/59
f 25/40/60 26/41/60 7/12/60
f 25/40/61 15/27/61 26/41/61
f 15/27/62 2/6/62 26/41/62
f 23/38/63 24/39/63 11/17/63
f 23/38/64 16/28/64 24/39/64
f 16/28/65 6/11/65 24/39/65
f 17/29/66 22/37/66 6/11/66
f 17/29/67 20/34/67 22/37/67
f 20/34/68 5/10/68 22/37/68
f 20/35/69 21/36/69 5/10/69
f 20/35/70 18/31/70 21/36/70
f 18/31/71 4/9/71 21/36/71
f 18/32/72 19/33/72 4/9/72
f 18/32/73 13/23/73 19/33/73
f 13/23/74 3/7/74 19/33/74
f 16/28/75 17/30/75 6/11/75
f 16/28/76 14/25/76 17/30/76
f 14/25/77 1/5/77 17/30/77
f 13/24/78 15/27/78 3/8/78
f 13/24/79 14/26/79 15/27/79
f 14/26/80 2/6/80 15/27/80
